<svg width="79" height="79" viewBox="0 0 79 79" fill="none" xmlns="http://www.w3.org/2000/svg">
<path fill-rule="evenodd" clip-rule="evenodd" d="M10.3687 51.8437C9.94144 51.8114 9.51229 51.8114 9.08499 51.8437C7.50499 52.0412 7.04416 52.8313 7.53791 54.1479L8.29499 54.3783C8.64944 54.4981 8.99123 54.6524 9.31541 54.8392C9.69735 55.0188 10.052 55.2515 10.3687 55.5304C10.7564 55.7804 11.1104 56.0791 11.4221 56.4192L11.6525 56.7154C12.8704 57.1762 13.6275 56.7154 13.8579 55.3658C13.6361 54.7736 13.3253 54.2186 12.9362 53.72C12.2722 52.8673 11.3828 52.2174 10.3687 51.8437Z" fill="#F5C518"/>
<path fill-rule="evenodd" clip-rule="evenodd" d="M16.8862 47.2354C18.4522 47.7156 20.1261 47.7156 21.692 47.2354C24.0289 46.6073 26.1835 45.4341 27.9791 43.8121C29.8431 41.9925 30.9487 39.5344 31.0733 36.9325C31.0139 34.4745 30.0397 32.127 28.3412 30.3492C27.6856 29.5875 26.8718 28.9779 25.9566 28.5629C25.0413 28.1479 24.0465 27.9375 23.0416 27.9462C21.4616 28.4729 21.8895 29.7238 22.8441 29.9542C24.2482 30.2114 25.4985 31.0017 26.3333 32.1596C27.347 33.4358 27.8514 35.0426 27.7487 36.6692C27.5361 38.3781 26.7187 39.9544 25.4445 41.1129C24.1212 42.4217 22.5251 43.422 20.7704 44.0425C19.8623 44.4485 18.8538 44.5745 17.8737 44.4046C16.8018 44.2046 15.8346 43.6335 15.1416 42.7917C14.9523 42.604 14.7865 42.3939 14.6479 42.1662C13.8579 41.3104 12.6729 43.2525 13.1008 44.0425V44.24C13.9768 45.6475 15.315 46.7065 16.8862 47.2354Z" fill="#F5C518"/>
<path fill-rule="evenodd" clip-rule="evenodd" d="M78.1442 22.3504C77.6682 21.145 76.9533 20.0483 76.0426 19.1262C75.1318 18.2042 74.044 17.4758 72.8446 16.985C71.8995 16.5446 70.8545 16.3629 69.8162 16.4583C69.8367 16.1731 69.7503 15.8904 69.5739 15.6653C69.3974 15.4401 69.1436 15.2887 68.8617 15.2404C67.6956 15.0285 66.5418 14.7538 65.4054 14.4175C62.6733 13.6275 60.0071 12.64 57.275 11.8171L46.0833 9.01917C43.45 8.26208 40.7508 7.01125 37.9858 6.41875C36.6583 6.11898 35.2968 5.99721 33.9371 6.05667C32.0166 6.18341 30.1646 6.81969 28.5717 7.9C26.9447 8.89331 25.5879 10.2727 24.6217 11.9158C23.8756 13.3061 23.6536 14.9181 23.9962 16.4583C24.2703 17.5127 24.8149 18.4771 25.5762 19.2562C24.9529 19.8297 24.37 20.4456 23.8317 21.0996C22.91 22.2517 22.0871 23.5025 21.2312 24.7533L14.6479 34.9246L4.60833 50.8892L3.29167 52.8312L2.23833 54.4442C0.834956 56.5303 0.0582368 58.9747 0 61.4883C0.0502519 61.7553 0.1162 62.0191 0.1975 62.2783C0.181406 62.3654 0.181406 62.4546 0.1975 62.5417C0.427917 63.8254 0.69125 65.3396 1.08625 66.755C1.37746 67.7859 1.78611 68.7799 2.30417 69.7175C2.99132 70.8198 3.9699 71.7107 5.13172 72.2916C6.29353 72.8725 7.59335 73.1208 8.8875 73.0092C10.5543 72.9277 12.193 72.5487 13.7262 71.89C15.1666 71.2913 16.5448 70.5526 17.8408 69.6846L20.6387 67.9071L23.4696 65.8333C23.7426 65.7046 23.9543 65.4738 24.0589 65.1906C24.1636 64.9075 24.1529 64.5945 24.0292 64.3192C23.8946 64.0519 23.6613 63.8476 23.3787 63.7493C23.0961 63.651 22.7864 63.6665 22.515 63.7925L19.2233 65.57L16.2937 66.9525C15.0287 67.5208 13.7318 68.0153 12.4096 68.4338C11.1891 68.806 9.93012 69.0379 8.65708 69.125C7.9741 69.2445 7.27199 69.1895 6.61595 68.9651C5.95992 68.7407 5.37124 68.3541 4.90458 67.8413C4.39717 67.2262 3.96612 66.552 3.62083 65.8333L3.29167 64.8787C4.11253 65.1283 4.98 65.1847 5.82625 65.0433C6.96844 64.7866 8.07419 64.3886 9.11792 63.8583C10.5209 63.1758 11.8739 62.3948 13.1667 61.5212C14.9442 60.2704 16.6558 58.8879 18.4662 57.67C18.7954 57.4067 19.75 57.0775 20.4412 56.6825C20.8843 57.9612 21.4463 59.1955 22.12 60.3692C22.6487 61.2396 23.3031 62.0272 24.0621 62.7062C24.7247 63.298 25.5303 63.7064 26.3992 63.8912C27.1748 64.0688 27.9878 63.9758 28.7033 63.6279C29.8052 63.0484 30.7103 62.1548 31.3037 61.0604C32.0943 59.6329 32.4812 58.017 32.4229 56.3862C33.2744 56.617 34.1719 56.617 35.0233 56.3862C35.6721 56.1765 36.2644 55.8213 36.755 55.3478C37.2456 54.8744 37.6215 54.2951 37.8542 53.6542C38.1637 52.7674 38.2651 51.8214 38.1504 50.8892C37.9708 49.7637 37.6729 48.6604 37.2617 47.5975C37.2617 47.2354 37.2617 46.6758 36.9983 46.4454C37.3873 46.1667 37.7941 45.9138 38.2162 45.6883L40.9483 44.4704V45.1617L41.4421 46.9721C42.145 49.2587 43.4939 51.2934 45.3262 52.8312C45.924 53.2194 46.6214 53.426 47.3342 53.426C48.0469 53.426 48.7443 53.2194 49.3421 52.8312C50.1289 52.3558 50.7943 51.7038 51.2856 50.9268C51.7769 50.1499 52.0807 49.2692 52.1729 48.3546C52.3786 46.0374 52.0404 43.7043 51.1854 41.5408C51.1854 41.1129 50.7575 39.2696 50.1321 39.0721C50.4065 38.769 50.729 38.5132 51.0867 38.315C52.1729 37.6567 53.4567 37.1629 54.3783 36.735C55.695 36.0767 56.9787 35.3196 58.2625 34.5296C60.1058 33.3775 61.9162 32.1596 63.7267 30.9746C63.9369 30.8287 64.0907 30.6151 64.1626 30.3696C64.2345 30.124 64.22 29.8612 64.1217 29.625C64.2995 29.4911 64.4303 29.3043 64.4954 29.0914C64.5604 28.8785 64.5564 28.6504 64.4837 28.44C63.9876 27.0907 63.9876 25.6089 64.4837 24.2596C65.0999 22.948 66.0402 21.8151 67.2158 20.9679C67.8351 20.3805 68.5943 19.9612 69.4212 19.75C70.1146 19.5886 70.8432 19.6944 71.4621 20.0462C72.4246 20.5175 73.2575 21.2165 73.8885 22.0827C74.5195 22.9489 74.9295 23.956 75.0829 25.0167C75.4635 27.3198 75.2249 29.6827 74.3917 31.8633C73.7034 33.9212 72.5808 35.8072 71.1 37.3933C68.582 39.8686 65.813 42.075 62.8379 43.9767C61.0604 45.1946 59.2829 46.5442 57.4396 47.795C56.2217 48.585 55.0037 49.375 53.7529 50.0333C53.5174 50.147 53.3366 50.3495 53.2502 50.5964C53.1638 50.8432 53.1789 51.1142 53.2921 51.35C53.4123 51.5878 53.6208 51.7692 53.873 51.8553C54.1252 51.9414 54.4011 51.9255 54.6417 51.8108C55.9912 51.2183 57.3079 50.4942 58.6575 49.7371L64.3521 46.4454C67.7075 44.7034 70.8454 42.571 73.7004 40.0925C75.6727 38.0714 77.139 35.6126 77.9796 32.9167C79.2591 29.5204 79.3173 25.7849 78.1442 22.3504ZM57.0446 32.6204C55.8267 33.3446 54.5758 34.0358 53.325 34.6283C51.9404 35.1782 50.6075 35.8501 49.3421 36.6363C48.6259 37.0874 48.0457 37.7245 47.6633 38.4796C47.4771 38.9898 47.4771 39.5494 47.6633 40.0596C47.9267 40.9154 48.6837 42.1333 48.8483 42.5942C49.3685 44.0741 49.6248 45.6339 49.6054 47.2025C49.6714 47.84 49.5623 48.4834 49.2896 49.0635C49.017 49.6435 48.5913 50.1382 48.0583 50.4942C47.3013 50.8892 46.7746 50.2308 46.3137 49.5725C45.6011 48.5652 45.0462 47.4553 44.6679 46.2808L44.3058 44.7996V42.7258C44.2347 42.3244 44.1357 41.9285 44.0096 41.5408C43.9018 41.3147 43.7458 41.1149 43.5524 40.9557C43.359 40.7964 43.133 40.6815 42.8904 40.6192C42.5344 40.5257 42.1602 40.5257 41.8042 40.6192C41.2841 40.8643 40.7786 41.1391 40.29 41.4421C39.0392 42.0017 37.6237 42.4625 36.4058 43.1538C35.7744 43.4869 35.1787 43.884 34.6283 44.3388C34.0928 44.7905 33.7415 45.4229 33.6408 46.1163C33.6206 47.0786 33.8116 48.0336 34.2004 48.9142C34.4586 49.6119 34.6676 50.3268 34.8258 51.0538C34.9573 51.5387 34.9573 52.05 34.8258 52.535C34.7773 52.6458 34.705 52.7445 34.6139 52.8242C34.5229 52.9038 34.4154 52.9624 34.2992 52.9958C34.0587 53.0454 33.8102 53.0416 33.5714 52.9848C33.3325 52.9279 33.109 52.8193 32.9167 52.6667C32.3571 52.4033 31.8633 51.9425 31.3037 51.6462C31.0407 51.5185 30.7649 51.4192 30.4808 51.35C30.0811 51.2082 29.6434 51.2169 29.2496 51.3744C28.8558 51.5319 28.5329 51.8275 28.3412 52.2058C28.2013 52.8234 28.2013 53.4645 28.3412 54.0821L28.8021 56.5179C28.8213 57.3 28.6637 58.0764 28.3412 58.7892C28.1331 59.3525 27.7531 59.8361 27.255 60.1717L26.6954 59.8425C26.1062 59.2944 25.6162 58.6485 25.2471 57.9333C24.8191 57.1025 24.4453 56.2449 24.1279 55.3658C23.858 54.4317 23.494 53.5274 23.0417 52.6667C22.8374 52.4005 22.5725 52.1869 22.2691 52.0438C21.9656 51.9007 21.6324 51.8321 21.2971 51.8438C20.5052 51.9082 19.7444 52.1807 19.0917 52.6338C18.1042 53.2592 17.0508 54.2467 16.4912 54.6417C15.9317 55.0367 11.6525 58.2625 11.2246 58.5258C10.189 59.32 9.08782 60.0248 7.93292 60.6325C7.26946 60.9898 6.57546 61.2872 5.85917 61.5212C5.36802 61.6868 4.83614 61.6868 4.345 61.5212C3.555 61.2908 3.68667 60.5337 3.81833 59.8425C4.07904 58.4941 4.52199 57.1874 5.135 55.9583L6.08958 54.4113C18.2358 33.7067 8.26208 50.6917 16.9521 36.1096C24.3583 23.7988 9.875 47.9267 23.0417 26.0371C23.8317 24.7862 24.5887 23.5683 25.4446 22.4492C25.994 21.7228 26.5993 21.0404 27.255 20.4083C27.4196 20.4083 27.5512 20.4083 27.7158 20.1779C28.7692 20.4412 29.8664 20.7375 31.0075 21.0667C33.8713 22.0212 36.6692 23.1733 39.5329 23.9962C41.7712 24.49 44.0096 24.9508 46.1162 25.3129C48.2229 25.675 50.56 25.9712 52.6996 26.4321C53.7858 26.6296 54.8721 26.86 55.9912 27.1562L61.4554 29.1313C61.5906 29.1892 61.7362 29.2191 61.8833 29.2191C62.0304 29.2191 62.176 29.1892 62.3112 29.1313C60.6654 30.3492 58.8879 31.5342 57.0446 32.6204ZM65.3725 18.5979C63.8822 19.8518 62.7471 21.4749 62.0808 23.305C61.7342 24.4449 61.6332 25.6453 61.7846 26.8271L56.8471 24.4242C54.7053 23.5757 52.5051 22.8827 50.2637 22.3504C46.9721 21.5604 43.6804 21.1325 40.2242 20.4083C36.7679 19.6842 34.4637 19.2562 31.5671 18.6967C30.2504 18.4333 28.9667 18.2358 27.6829 18.1042H27.3208C26.7934 17.5521 26.4486 16.851 26.3333 16.0962C26.1202 15.0884 26.3091 14.0372 26.86 13.1667C27.6663 12.0167 28.7393 11.0792 29.9871 10.4346C31.164 9.77832 32.4908 9.43811 33.8383 9.44708C34.9509 9.4574 36.0574 9.61231 37.13 9.90792C39.7962 10.5992 42.4625 11.7842 45.03 12.5083C46.215 12.8375 47.3671 13.1337 48.585 13.3642C51.2842 13.8908 53.9833 14.2529 56.6825 14.8125C59.3817 15.3721 62.1796 16.2279 64.9775 16.8204L67.3146 17.2154C66.6138 17.5961 65.9617 18.0603 65.3725 18.5979Z" fill="#F5C518"/>
<path fill-rule="evenodd" clip-rule="evenodd" d="M43.3185 54.7067C41.8003 55.0737 40.3226 55.592 38.9077 56.2538C37.9092 56.7545 36.9419 57.3151 36.011 57.9325C35.0565 58.5579 34.2335 59.2492 33.279 59.8088C33.1579 59.8585 33.0479 59.9315 32.9551 60.0238C32.8623 60.116 32.7886 60.2256 32.7381 60.3464C32.6877 60.4671 32.6615 60.5966 32.6611 60.7274C32.6607 60.8583 32.6861 60.9879 32.7358 61.109C32.7856 61.23 32.8586 61.3401 32.9509 61.4329C33.0431 61.5257 33.1527 61.5994 33.2735 61.6498C33.3942 61.7002 33.5237 61.7264 33.6545 61.7268C33.7854 61.7272 33.915 61.7018 34.036 61.6521C35.5573 61.2876 37.0441 60.792 38.4798 60.1708C39.2698 59.8088 40.0598 59.3808 40.8498 58.92C41.6398 58.4592 42.9894 57.4388 44.1415 56.8133C44.4188 56.6963 44.6412 56.478 44.7635 56.2029C44.8858 55.9278 44.8988 55.6164 44.7998 55.3321C44.6831 55.0553 44.463 54.8351 44.1863 54.7183C43.9096 54.6014 43.5983 54.5973 43.3185 54.7067Z" fill="#F5C518"/>
<path fill-rule="evenodd" clip-rule="evenodd" d="M45.6883 26.9907C45.5994 26.8951 45.4853 26.8266 45.3591 26.7932C43.7451 26.1261 41.9438 26.0676 40.2899 26.6286C38.6067 27.1328 37.1004 28.1027 35.9449 29.4265C35.3505 30.0946 34.9168 30.8898 34.6772 31.7514C34.4375 32.6129 34.3983 33.5179 34.5624 34.3969C34.7511 35.0818 35.1048 35.71 35.5926 36.2265C36.0804 36.743 36.6873 37.132 37.3604 37.3594C38.9227 37.9058 40.5823 38.1189 42.232 37.9848C43.9839 37.8558 45.6469 37.1629 46.972 36.0098C47.7015 35.3558 48.2488 34.5236 48.5604 33.5947C48.872 32.6658 48.9371 31.6719 48.7495 30.7103C48.5935 29.8827 48.2311 29.108 47.696 28.4578C47.1609 27.8076 46.4703 27.303 45.6883 26.9907ZM44.8654 33.574C43.9949 34.1048 42.9876 34.3681 41.9687 34.3311C40.8514 34.4077 39.7303 34.2508 38.677 33.8703C38.3149 33.8703 38.0845 33.5411 38.0516 33.2448C38.0404 32.5917 38.2237 31.9501 38.5783 31.4015C39.2008 30.4113 40.1069 29.6313 41.1787 29.1632C41.9615 28.7554 42.8306 28.541 43.7133 28.5378C43.7827 28.6612 43.8771 28.7689 43.9905 28.8539C44.1038 28.9389 44.2336 28.9994 44.3716 29.0315C44.8228 29.1973 45.2157 29.4912 45.5022 29.8771C45.7887 30.263 45.9563 30.7242 45.9845 31.204C46.0095 31.6516 45.9198 32.0981 45.724 32.5013C45.5281 32.9046 45.2326 33.2511 44.8654 33.5082V33.574Z" fill="#F5C518"/>
</svg>
